<mxfile host="Electron" agent="Mozilla/5.0 (Windows NT 10.0; Win64; x64) AppleWebKit/537.36 (KHTML, like Gecko) draw.io/26.0.4 Chrome/128.0.6613.186 Electron/32.2.5 Safari/537.36" version="26.0.4" pages="5">
  <diagram id="Myf3d-e0zLJHoNPqTAWA" name="glTF Reading">
    <mxGraphModel dx="1434" dy="836" grid="1" gridSize="10" guides="1" tooltips="1" connect="1" arrows="1" fold="1" page="1" pageScale="1" pageWidth="850" pageHeight="1100" math="0" shadow="0">
      <root>
        <mxCell id="0" />
        <mxCell id="1" parent="0" />
        <mxCell id="bNDCWDMt_EX-FRCWc5_B-2" value="magic" style="rounded=0;whiteSpace=wrap;html=1;" vertex="1" parent="1">
          <mxGeometry x="230" y="230" width="50" height="60" as="geometry" />
        </mxCell>
        <mxCell id="bNDCWDMt_EX-FRCWc5_B-6" value="GLB file" style="text;html=1;align=center;verticalAlign=middle;whiteSpace=wrap;rounded=0;" vertex="1" parent="1">
          <mxGeometry x="230" y="190" width="60" height="30" as="geometry" />
        </mxCell>
        <mxCell id="bNDCWDMt_EX-FRCWc5_B-7" value="" style="endArrow=classic;startArrow=classic;html=1;rounded=0;" edge="1" parent="1">
          <mxGeometry width="50" height="50" relative="1" as="geometry">
            <mxPoint x="230" y="310" as="sourcePoint" />
            <mxPoint x="280" y="310" as="targetPoint" />
          </mxGeometry>
        </mxCell>
        <mxCell id="bNDCWDMt_EX-FRCWc5_B-8" value="uint32" style="edgeLabel;html=1;align=center;verticalAlign=middle;resizable=0;points=[];" vertex="1" connectable="0" parent="bNDCWDMt_EX-FRCWc5_B-7">
          <mxGeometry x="0.0667" y="2" relative="1" as="geometry">
            <mxPoint x="-2" y="22" as="offset" />
          </mxGeometry>
        </mxCell>
        <mxCell id="bNDCWDMt_EX-FRCWc5_B-9" value="version" style="rounded=0;whiteSpace=wrap;html=1;" vertex="1" parent="1">
          <mxGeometry x="280" y="230" width="50" height="60" as="geometry" />
        </mxCell>
        <mxCell id="bNDCWDMt_EX-FRCWc5_B-10" value="" style="endArrow=classic;startArrow=classic;html=1;rounded=0;" edge="1" parent="1">
          <mxGeometry width="50" height="50" relative="1" as="geometry">
            <mxPoint x="280" y="310" as="sourcePoint" />
            <mxPoint x="330" y="310" as="targetPoint" />
          </mxGeometry>
        </mxCell>
        <mxCell id="bNDCWDMt_EX-FRCWc5_B-11" value="uint32" style="edgeLabel;html=1;align=center;verticalAlign=middle;resizable=0;points=[];" vertex="1" connectable="0" parent="bNDCWDMt_EX-FRCWc5_B-10">
          <mxGeometry x="0.0667" y="2" relative="1" as="geometry">
            <mxPoint x="-2" y="22" as="offset" />
          </mxGeometry>
        </mxCell>
        <mxCell id="bNDCWDMt_EX-FRCWc5_B-12" value="length" style="rounded=0;whiteSpace=wrap;html=1;" vertex="1" parent="1">
          <mxGeometry x="330" y="230" width="50" height="60" as="geometry" />
        </mxCell>
        <mxCell id="bNDCWDMt_EX-FRCWc5_B-13" value="" style="endArrow=classic;startArrow=classic;html=1;rounded=0;" edge="1" parent="1">
          <mxGeometry width="50" height="50" relative="1" as="geometry">
            <mxPoint x="330" y="310" as="sourcePoint" />
            <mxPoint x="380" y="310" as="targetPoint" />
          </mxGeometry>
        </mxCell>
        <mxCell id="bNDCWDMt_EX-FRCWc5_B-14" value="uint32" style="edgeLabel;html=1;align=center;verticalAlign=middle;resizable=0;points=[];" vertex="1" connectable="0" parent="bNDCWDMt_EX-FRCWc5_B-13">
          <mxGeometry x="0.0667" y="2" relative="1" as="geometry">
            <mxPoint x="-2" y="22" as="offset" />
          </mxGeometry>
        </mxCell>
        <mxCell id="bNDCWDMt_EX-FRCWc5_B-18" value="&lt;font&gt;chunk&lt;/font&gt;&lt;div&gt;&lt;font&gt;Length&lt;/font&gt;&lt;/div&gt;" style="rounded=0;whiteSpace=wrap;html=1;" vertex="1" parent="1">
          <mxGeometry x="380" y="230" width="50" height="60" as="geometry" />
        </mxCell>
        <mxCell id="bNDCWDMt_EX-FRCWc5_B-19" value="" style="endArrow=classic;startArrow=classic;html=1;rounded=0;" edge="1" parent="1">
          <mxGeometry width="50" height="50" relative="1" as="geometry">
            <mxPoint x="380" y="310" as="sourcePoint" />
            <mxPoint x="430" y="310" as="targetPoint" />
          </mxGeometry>
        </mxCell>
        <mxCell id="bNDCWDMt_EX-FRCWc5_B-20" value="uint32" style="edgeLabel;html=1;align=center;verticalAlign=middle;resizable=0;points=[];" vertex="1" connectable="0" parent="bNDCWDMt_EX-FRCWc5_B-19">
          <mxGeometry x="0.0667" y="2" relative="1" as="geometry">
            <mxPoint x="-2" y="22" as="offset" />
          </mxGeometry>
        </mxCell>
        <mxCell id="bNDCWDMt_EX-FRCWc5_B-22" value="&lt;font&gt;chunk&lt;/font&gt;&lt;div&gt;&lt;font&gt;Type&lt;/font&gt;&lt;/div&gt;" style="rounded=0;whiteSpace=wrap;html=1;" vertex="1" parent="1">
          <mxGeometry x="430" y="230" width="50" height="60" as="geometry" />
        </mxCell>
        <mxCell id="bNDCWDMt_EX-FRCWc5_B-23" value="" style="endArrow=classic;startArrow=classic;html=1;rounded=0;" edge="1" parent="1">
          <mxGeometry width="50" height="50" relative="1" as="geometry">
            <mxPoint x="430" y="310" as="sourcePoint" />
            <mxPoint x="480" y="310" as="targetPoint" />
          </mxGeometry>
        </mxCell>
        <mxCell id="bNDCWDMt_EX-FRCWc5_B-24" value="uint32" style="edgeLabel;html=1;align=center;verticalAlign=middle;resizable=0;points=[];" vertex="1" connectable="0" parent="bNDCWDMt_EX-FRCWc5_B-23">
          <mxGeometry x="0.0667" y="2" relative="1" as="geometry">
            <mxPoint x="-2" y="22" as="offset" />
          </mxGeometry>
        </mxCell>
        <mxCell id="bNDCWDMt_EX-FRCWc5_B-25" value="chunkData" style="rounded=0;whiteSpace=wrap;html=1;" vertex="1" parent="1">
          <mxGeometry x="480" y="230" width="170" height="60" as="geometry" />
        </mxCell>
        <mxCell id="bNDCWDMt_EX-FRCWc5_B-26" value="" style="endArrow=classic;startArrow=classic;html=1;rounded=0;" edge="1" parent="1">
          <mxGeometry width="50" height="50" relative="1" as="geometry">
            <mxPoint x="480" y="310" as="sourcePoint" />
            <mxPoint x="650" y="310" as="targetPoint" />
          </mxGeometry>
        </mxCell>
        <mxCell id="bNDCWDMt_EX-FRCWc5_B-27" value="ubyte[]" style="edgeLabel;html=1;align=center;verticalAlign=middle;resizable=0;points=[];" vertex="1" connectable="0" parent="bNDCWDMt_EX-FRCWc5_B-26">
          <mxGeometry x="0.0667" y="2" relative="1" as="geometry">
            <mxPoint x="-10" y="22" as="offset" />
          </mxGeometry>
        </mxCell>
        <mxCell id="bNDCWDMt_EX-FRCWc5_B-28" value="&lt;font&gt;chunk&lt;/font&gt;&lt;div&gt;&lt;font&gt;Length&lt;/font&gt;&lt;/div&gt;" style="rounded=0;whiteSpace=wrap;html=1;" vertex="1" parent="1">
          <mxGeometry x="650" y="230" width="50" height="60" as="geometry" />
        </mxCell>
        <mxCell id="bNDCWDMt_EX-FRCWc5_B-29" value="" style="endArrow=classic;startArrow=classic;html=1;rounded=0;" edge="1" parent="1">
          <mxGeometry width="50" height="50" relative="1" as="geometry">
            <mxPoint x="650" y="310" as="sourcePoint" />
            <mxPoint x="700" y="310" as="targetPoint" />
          </mxGeometry>
        </mxCell>
        <mxCell id="bNDCWDMt_EX-FRCWc5_B-30" value="uint32" style="edgeLabel;html=1;align=center;verticalAlign=middle;resizable=0;points=[];" vertex="1" connectable="0" parent="bNDCWDMt_EX-FRCWc5_B-29">
          <mxGeometry x="0.0667" y="2" relative="1" as="geometry">
            <mxPoint x="-2" y="22" as="offset" />
          </mxGeometry>
        </mxCell>
        <mxCell id="bNDCWDMt_EX-FRCWc5_B-31" value="&lt;font&gt;chunk&lt;/font&gt;&lt;div&gt;&lt;font&gt;Type&lt;/font&gt;&lt;/div&gt;" style="rounded=0;whiteSpace=wrap;html=1;" vertex="1" parent="1">
          <mxGeometry x="700" y="230" width="50" height="60" as="geometry" />
        </mxCell>
        <mxCell id="bNDCWDMt_EX-FRCWc5_B-32" value="" style="endArrow=classic;startArrow=classic;html=1;rounded=0;" edge="1" parent="1">
          <mxGeometry width="50" height="50" relative="1" as="geometry">
            <mxPoint x="700" y="310" as="sourcePoint" />
            <mxPoint x="750" y="310" as="targetPoint" />
          </mxGeometry>
        </mxCell>
        <mxCell id="bNDCWDMt_EX-FRCWc5_B-33" value="uint32" style="edgeLabel;html=1;align=center;verticalAlign=middle;resizable=0;points=[];" vertex="1" connectable="0" parent="bNDCWDMt_EX-FRCWc5_B-32">
          <mxGeometry x="0.0667" y="2" relative="1" as="geometry">
            <mxPoint x="-2" y="22" as="offset" />
          </mxGeometry>
        </mxCell>
        <mxCell id="bNDCWDMt_EX-FRCWc5_B-34" value="chunkData" style="rounded=0;whiteSpace=wrap;html=1;" vertex="1" parent="1">
          <mxGeometry x="750" y="230" width="170" height="60" as="geometry" />
        </mxCell>
        <mxCell id="bNDCWDMt_EX-FRCWc5_B-35" value="" style="endArrow=classic;startArrow=classic;html=1;rounded=0;" edge="1" parent="1">
          <mxGeometry width="50" height="50" relative="1" as="geometry">
            <mxPoint x="750" y="310" as="sourcePoint" />
            <mxPoint x="920" y="310" as="targetPoint" />
          </mxGeometry>
        </mxCell>
        <mxCell id="bNDCWDMt_EX-FRCWc5_B-36" value="ubyte[]" style="edgeLabel;html=1;align=center;verticalAlign=middle;resizable=0;points=[];" vertex="1" connectable="0" parent="bNDCWDMt_EX-FRCWc5_B-35">
          <mxGeometry x="0.0667" y="2" relative="1" as="geometry">
            <mxPoint x="-10" y="22" as="offset" />
          </mxGeometry>
        </mxCell>
        <mxCell id="bNDCWDMt_EX-FRCWc5_B-37" value="" style="endArrow=classic;startArrow=classic;html=1;rounded=0;" edge="1" parent="1">
          <mxGeometry width="50" height="50" relative="1" as="geometry">
            <mxPoint x="380" y="210" as="sourcePoint" />
            <mxPoint x="650" y="210" as="targetPoint" />
          </mxGeometry>
        </mxCell>
        <mxCell id="bNDCWDMt_EX-FRCWc5_B-38" value="json chunk" style="edgeLabel;html=1;align=center;verticalAlign=middle;resizable=0;points=[];" vertex="1" connectable="0" parent="bNDCWDMt_EX-FRCWc5_B-37">
          <mxGeometry x="0.0536" y="-1" relative="1" as="geometry">
            <mxPoint x="-7" y="-21" as="offset" />
          </mxGeometry>
        </mxCell>
        <mxCell id="bNDCWDMt_EX-FRCWc5_B-39" value="" style="endArrow=classic;startArrow=classic;html=1;rounded=0;" edge="1" parent="1">
          <mxGeometry width="50" height="50" relative="1" as="geometry">
            <mxPoint x="650" y="210" as="sourcePoint" />
            <mxPoint x="920" y="210" as="targetPoint" />
          </mxGeometry>
        </mxCell>
        <mxCell id="bNDCWDMt_EX-FRCWc5_B-40" value="binary" style="edgeLabel;html=1;align=center;verticalAlign=middle;resizable=0;points=[];" vertex="1" connectable="0" parent="bNDCWDMt_EX-FRCWc5_B-39">
          <mxGeometry x="-0.0042" relative="1" as="geometry">
            <mxPoint x="6" y="-20" as="offset" />
          </mxGeometry>
        </mxCell>
        <mxCell id="bNDCWDMt_EX-FRCWc5_B-41" value="GLTFAsset" style="swimlane;fontStyle=1;align=center;verticalAlign=top;childLayout=stackLayout;horizontal=1;startSize=26;horizontalStack=0;resizeParent=1;resizeParentMax=0;resizeLast=0;collapsible=1;marginBottom=0;whiteSpace=wrap;html=1;" vertex="1" parent="1">
          <mxGeometry x="230" y="410" width="270" height="164" as="geometry" />
        </mxCell>
        <mxCell id="bNDCWDMt_EX-FRCWc5_B-42" value="+ std::vector&amp;lt;njVec3f&amp;gt; positions" style="text;strokeColor=none;fillColor=none;align=left;verticalAlign=top;spacingLeft=4;spacingRight=4;overflow=hidden;rotatable=0;points=[[0,0.5],[1,0.5]];portConstraint=eastwest;whiteSpace=wrap;html=1;" vertex="1" parent="bNDCWDMt_EX-FRCWc5_B-41">
          <mxGeometry y="26" width="270" height="26" as="geometry" />
        </mxCell>
        <mxCell id="XYBcjkJBlCwQ0c6LC4ea-1" value="+ std::vector&amp;lt;njVec3f&amp;gt; normals" style="text;strokeColor=none;fillColor=none;align=left;verticalAlign=top;spacingLeft=4;spacingRight=4;overflow=hidden;rotatable=0;points=[[0,0.5],[1,0.5]];portConstraint=eastwest;whiteSpace=wrap;html=1;" vertex="1" parent="bNDCWDMt_EX-FRCWc5_B-41">
          <mxGeometry y="52" width="270" height="26" as="geometry" />
        </mxCell>
        <mxCell id="XYBcjkJBlCwQ0c6LC4ea-2" value="+ std::vector&amp;lt;njVec4f&amp;gt; tangents" style="text;strokeColor=none;fillColor=none;align=left;verticalAlign=top;spacingLeft=4;spacingRight=4;overflow=hidden;rotatable=0;points=[[0,0.5],[1,0.5]];portConstraint=eastwest;whiteSpace=wrap;html=1;" vertex="1" parent="bNDCWDMt_EX-FRCWc5_B-41">
          <mxGeometry y="78" width="270" height="26" as="geometry" />
        </mxCell>
        <mxCell id="XYBcjkJBlCwQ0c6LC4ea-3" value="+ std::vector&amp;lt;njVec2f&amp;gt; tex_coords" style="text;strokeColor=none;fillColor=none;align=left;verticalAlign=top;spacingLeft=4;spacingRight=4;overflow=hidden;rotatable=0;points=[[0,0.5],[1,0.5]];portConstraint=eastwest;whiteSpace=wrap;html=1;" vertex="1" parent="bNDCWDMt_EX-FRCWc5_B-41">
          <mxGeometry y="104" width="270" height="26" as="geometry" />
        </mxCell>
        <mxCell id="bNDCWDMt_EX-FRCWc5_B-43" value="" style="line;strokeWidth=1;fillColor=none;align=left;verticalAlign=middle;spacingTop=-1;spacingLeft=3;spacingRight=3;rotatable=0;labelPosition=right;points=[];portConstraint=eastwest;strokeColor=inherit;" vertex="1" parent="bNDCWDMt_EX-FRCWc5_B-41">
          <mxGeometry y="130" width="270" height="8" as="geometry" />
        </mxCell>
        <mxCell id="bNDCWDMt_EX-FRCWc5_B-44" value="+ method(type): type" style="text;strokeColor=none;fillColor=none;align=left;verticalAlign=top;spacingLeft=4;spacingRight=4;overflow=hidden;rotatable=0;points=[[0,0.5],[1,0.5]];portConstraint=eastwest;whiteSpace=wrap;html=1;" vertex="1" parent="bNDCWDMt_EX-FRCWc5_B-41">
          <mxGeometry y="138" width="270" height="26" as="geometry" />
        </mxCell>
        <mxCell id="bNDCWDMt_EX-FRCWc5_B-45" value="In principle we only read 1 mesh per glTF and animations&lt;div&gt;i.e., 1 glTF -&amp;gt; 1 &quot;thing&quot;&lt;/div&gt;" style="text;html=1;align=center;verticalAlign=middle;whiteSpace=wrap;rounded=0;" vertex="1" parent="1">
          <mxGeometry x="230" y="50" width="230" height="40" as="geometry" />
        </mxCell>
        <mxCell id="bNDCWDMt_EX-FRCWc5_B-46" value="rules:&lt;div&gt;1 mesh per exported glTF (meshes array must be exactly size 1)&amp;nbsp;&lt;/div&gt;&lt;div&gt;this means flatten all mesh hierarchies into 1&lt;/div&gt;" style="text;html=1;align=left;verticalAlign=middle;whiteSpace=wrap;rounded=0;" vertex="1" parent="1">
          <mxGeometry x="220" y="110" width="290" height="30" as="geometry" />
        </mxCell>
      </root>
    </mxGraphModel>
  </diagram>
  <diagram name="Object Hierarchy" id="GNHIX6cvjrJSyAO_JTbH">
    <mxGraphModel dx="3797" dy="727" grid="1" gridSize="10" guides="1" tooltips="1" connect="1" arrows="1" fold="1" page="1" pageScale="1" pageWidth="850" pageHeight="1100" math="0" shadow="0">
      <root>
        <mxCell id="0" />
        <mxCell id="1" parent="0" />
        <mxCell id="WOpbR7FTokG8izxAT013-1" value="njMesh" style="swimlane;fontStyle=1;align=center;verticalAlign=top;childLayout=stackLayout;horizontal=1;startSize=26;horizontalStack=0;resizeParent=1;resizeParentMax=0;resizeLast=0;collapsible=1;marginBottom=0;whiteSpace=wrap;html=1;" parent="1" vertex="1">
          <mxGeometry x="-860" y="690" width="250" height="112" as="geometry" />
        </mxCell>
        <mxCell id="ojAoNzEasB_hIK-gFztl-26" value="- primitives_: Array&amp;lt;njPrimitive&amp;gt;" style="text;strokeColor=none;fillColor=none;align=left;verticalAlign=top;spacingLeft=4;spacingRight=4;overflow=hidden;rotatable=0;points=[[0,0.5],[1,0.5]];portConstraint=eastwest;whiteSpace=wrap;html=1;" parent="WOpbR7FTokG8izxAT013-1" vertex="1">
          <mxGeometry y="26" width="250" height="26" as="geometry" />
        </mxCell>
        <mxCell id="WOpbR7FTokG8izxAT013-2" value="- node_: njNode*" style="text;strokeColor=none;fillColor=none;align=left;verticalAlign=top;spacingLeft=4;spacingRight=4;overflow=hidden;rotatable=0;points=[[0,0.5],[1,0.5]];portConstraint=eastwest;whiteSpace=wrap;html=1;" parent="WOpbR7FTokG8izxAT013-1" vertex="1">
          <mxGeometry y="52" width="250" height="26" as="geometry" />
        </mxCell>
        <mxCell id="WOpbR7FTokG8izxAT013-3" value="" style="line;strokeWidth=1;fillColor=none;align=left;verticalAlign=middle;spacingTop=-1;spacingLeft=3;spacingRight=3;rotatable=0;labelPosition=right;points=[];portConstraint=eastwest;strokeColor=inherit;" parent="WOpbR7FTokG8izxAT013-1" vertex="1">
          <mxGeometry y="78" width="250" height="8" as="geometry" />
        </mxCell>
        <mxCell id="WOpbR7FTokG8izxAT013-4" value="+ method(type): type" style="text;strokeColor=none;fillColor=none;align=left;verticalAlign=top;spacingLeft=4;spacingRight=4;overflow=hidden;rotatable=0;points=[[0,0.5],[1,0.5]];portConstraint=eastwest;whiteSpace=wrap;html=1;" parent="WOpbR7FTokG8izxAT013-1" vertex="1">
          <mxGeometry y="86" width="250" height="26" as="geometry" />
        </mxCell>
        <mxCell id="WOpbR7FTokG8izxAT013-6" value="njPrimitive" style="swimlane;fontStyle=1;align=center;verticalAlign=top;childLayout=stackLayout;horizontal=1;startSize=26;horizontalStack=0;resizeParent=1;resizeParentMax=0;resizeLast=0;collapsible=1;marginBottom=0;whiteSpace=wrap;html=1;" parent="1" vertex="1">
          <mxGeometry x="-460" y="702" width="310" height="100" as="geometry" />
        </mxCell>
        <mxCell id="WOpbR7FTokG8izxAT013-7" value="- vertices_: Array&amp;lt;njVertex&amp;gt;" style="text;strokeColor=none;fillColor=none;align=left;verticalAlign=top;spacingLeft=4;spacingRight=4;overflow=hidden;rotatable=0;points=[[0,0.5],[1,0.5]];portConstraint=eastwest;whiteSpace=wrap;html=1;" parent="WOpbR7FTokG8izxAT013-6" vertex="1">
          <mxGeometry y="26" width="310" height="26" as="geometry" />
        </mxCell>
        <mxCell id="WOpbR7FTokG8izxAT013-8" value="" style="line;strokeWidth=1;fillColor=none;align=left;verticalAlign=middle;spacingTop=-1;spacingLeft=3;spacingRight=3;rotatable=0;labelPosition=right;points=[];portConstraint=eastwest;strokeColor=inherit;" parent="WOpbR7FTokG8izxAT013-6" vertex="1">
          <mxGeometry y="52" width="310" height="8" as="geometry" />
        </mxCell>
        <mxCell id="WOpbR7FTokG8izxAT013-9" value="+ njPrimitive(Array&amp;lt;njVertex&amp;gt;): njPrimitive" style="text;strokeColor=none;fillColor=none;align=left;verticalAlign=top;spacingLeft=4;spacingRight=4;overflow=hidden;rotatable=0;points=[[0,0.5],[1,0.5]];portConstraint=eastwest;whiteSpace=wrap;html=1;" parent="WOpbR7FTokG8izxAT013-6" vertex="1">
          <mxGeometry y="60" width="310" height="40" as="geometry" />
        </mxCell>
        <mxCell id="WOpbR7FTokG8izxAT013-16" value="njVertex" style="swimlane;fontStyle=1;align=center;verticalAlign=top;childLayout=stackLayout;horizontal=1;startSize=26;horizontalStack=0;resizeParent=1;resizeParentMax=0;resizeLast=0;collapsible=1;marginBottom=0;whiteSpace=wrap;html=1;" parent="1" vertex="1">
          <mxGeometry x="-170" y="860" width="430" height="220" as="geometry" />
        </mxCell>
        <mxCell id="WOpbR7FTokG8izxAT013-17" value="- position: njVec3f" style="text;strokeColor=none;fillColor=none;align=left;verticalAlign=top;spacingLeft=4;spacingRight=4;overflow=hidden;rotatable=0;points=[[0,0.5],[1,0.5]];portConstraint=eastwest;whiteSpace=wrap;html=1;" parent="WOpbR7FTokG8izxAT013-16" vertex="1">
          <mxGeometry y="26" width="430" height="26" as="geometry" />
        </mxCell>
        <mxCell id="WOpbR7FTokG8izxAT013-21" value="- normal: njVec3f" style="text;strokeColor=none;fillColor=none;align=left;verticalAlign=top;spacingLeft=4;spacingRight=4;overflow=hidden;rotatable=0;points=[[0,0.5],[1,0.5]];portConstraint=eastwest;whiteSpace=wrap;html=1;" parent="WOpbR7FTokG8izxAT013-16" vertex="1">
          <mxGeometry y="52" width="430" height="26" as="geometry" />
        </mxCell>
        <mxCell id="WOpbR7FTokG8izxAT013-23" value="- tangent: njVec4f" style="text;strokeColor=none;fillColor=none;align=left;verticalAlign=top;spacingLeft=4;spacingRight=4;overflow=hidden;rotatable=0;points=[[0,0.5],[1,0.5]];portConstraint=eastwest;whiteSpace=wrap;html=1;" parent="WOpbR7FTokG8izxAT013-16" vertex="1">
          <mxGeometry y="78" width="430" height="26" as="geometry" />
        </mxCell>
        <mxCell id="WOpbR7FTokG8izxAT013-24" value="- tex_coord: njVec2f" style="text;strokeColor=none;fillColor=none;align=left;verticalAlign=top;spacingLeft=4;spacingRight=4;overflow=hidden;rotatable=0;points=[[0,0.5],[1,0.5]];portConstraint=eastwest;whiteSpace=wrap;html=1;" parent="WOpbR7FTokG8izxAT013-16" vertex="1">
          <mxGeometry y="104" width="430" height="26" as="geometry" />
        </mxCell>
        <mxCell id="WOpbR7FTokG8izxAT013-18" value="" style="line;strokeWidth=1;fillColor=none;align=left;verticalAlign=middle;spacingTop=-1;spacingLeft=3;spacingRight=3;rotatable=0;labelPosition=right;points=[];portConstraint=eastwest;strokeColor=inherit;" parent="WOpbR7FTokG8izxAT013-16" vertex="1">
          <mxGeometry y="130" width="430" height="8" as="geometry" />
        </mxCell>
        <mxCell id="WOpbR7FTokG8izxAT013-19" value="+ njVertex(njvertexCreateInfo&amp;gt;: njVertex" style="text;strokeColor=none;fillColor=none;align=left;verticalAlign=top;spacingLeft=4;spacingRight=4;overflow=hidden;rotatable=0;points=[[0,0.5],[1,0.5]];portConstraint=eastwest;whiteSpace=wrap;html=1;" parent="WOpbR7FTokG8izxAT013-16" vertex="1">
          <mxGeometry y="138" width="430" height="26" as="geometry" />
        </mxCell>
        <mxCell id="139kHUoA4rNyHdph3f0p-2" value="+ get_binding_description(): VkVertexInputBindingDescription" style="text;strokeColor=none;fillColor=none;align=left;verticalAlign=top;spacingLeft=4;spacingRight=4;overflow=hidden;rotatable=0;points=[[0,0.5],[1,0.5]];portConstraint=eastwest;whiteSpace=wrap;html=1;" parent="WOpbR7FTokG8izxAT013-16" vertex="1">
          <mxGeometry y="164" width="430" height="26" as="geometry" />
        </mxCell>
        <mxCell id="139kHUoA4rNyHdph3f0p-3" value="+ get_attribute_description(): Array&amp;lt;VkVertexInputAttributeDescription&amp;gt;" style="text;strokeColor=none;fillColor=none;align=left;verticalAlign=top;spacingLeft=4;spacingRight=4;overflow=hidden;rotatable=0;points=[[0,0.5],[1,0.5]];portConstraint=eastwest;whiteSpace=wrap;html=1;" parent="WOpbR7FTokG8izxAT013-16" vertex="1">
          <mxGeometry y="190" width="430" height="30" as="geometry" />
        </mxCell>
        <mxCell id="WOpbR7FTokG8izxAT013-25" value="njNode" style="swimlane;fontStyle=1;align=center;verticalAlign=top;childLayout=stackLayout;horizontal=1;startSize=30;horizontalStack=0;resizeParent=1;resizeParentMax=0;resizeLast=0;collapsible=1;marginBottom=0;whiteSpace=wrap;html=1;" parent="1" vertex="1">
          <mxGeometry x="-330" y="163" width="350" height="306" as="geometry" />
        </mxCell>
        <mxCell id="WOpbR7FTokG8izxAT013-38" value="- local_transform: Mat4" style="text;strokeColor=none;fillColor=none;align=left;verticalAlign=top;spacingLeft=4;spacingRight=4;overflow=hidden;rotatable=0;points=[[0,0.5],[1,0.5]];portConstraint=eastwest;whiteSpace=wrap;html=1;" parent="WOpbR7FTokG8izxAT013-25" vertex="1">
          <mxGeometry y="30" width="350" height="26" as="geometry" />
        </mxCell>
        <mxCell id="ojAoNzEasB_hIK-gFztl-5" value="- global_transform: Mat4" style="text;strokeColor=none;fillColor=none;align=left;verticalAlign=top;spacingLeft=4;spacingRight=4;overflow=hidden;rotatable=0;points=[[0,0.5],[1,0.5]];portConstraint=eastwest;whiteSpace=wrap;html=1;" parent="WOpbR7FTokG8izxAT013-25" vertex="1">
          <mxGeometry y="56" width="350" height="26" as="geometry" />
        </mxCell>
        <mxCell id="ojAoNzEasB_hIK-gFztl-27" value="- name: String" style="text;strokeColor=none;fillColor=none;align=left;verticalAlign=top;spacingLeft=4;spacingRight=4;overflow=hidden;rotatable=0;points=[[0,0.5],[1,0.5]];portConstraint=eastwest;whiteSpace=wrap;html=1;" parent="WOpbR7FTokG8izxAT013-25" vertex="1">
          <mxGeometry y="82" width="350" height="26" as="geometry" />
        </mxCell>
        <mxCell id="WOpbR7FTokG8izxAT013-43" value="- children: Array&amp;lt;njNode*&amp;gt;" style="text;strokeColor=none;fillColor=none;align=left;verticalAlign=top;spacingLeft=4;spacingRight=4;overflow=hidden;rotatable=0;points=[[0,0.5],[1,0.5]];portConstraint=eastwest;whiteSpace=wrap;html=1;" parent="WOpbR7FTokG8izxAT013-25" vertex="1">
          <mxGeometry y="108" width="350" height="26" as="geometry" />
        </mxCell>
        <mxCell id="WOpbR7FTokG8izxAT013-27" value="" style="line;strokeWidth=1;fillColor=none;align=left;verticalAlign=middle;spacingTop=-1;spacingLeft=3;spacingRight=3;rotatable=0;labelPosition=right;points=[];portConstraint=eastwest;strokeColor=inherit;" parent="WOpbR7FTokG8izxAT013-25" vertex="1">
          <mxGeometry y="134" width="350" height="8" as="geometry" />
        </mxCell>
        <mxCell id="ojAoNzEasB_hIK-gFztl-6" value="+ get_local_transform(): Mat4" style="text;strokeColor=none;fillColor=none;align=left;verticalAlign=top;spacingLeft=4;spacingRight=4;overflow=hidden;rotatable=0;points=[[0,0.5],[1,0.5]];portConstraint=eastwest;whiteSpace=wrap;html=1;" parent="WOpbR7FTokG8izxAT013-25" vertex="1">
          <mxGeometry y="142" width="350" height="26" as="geometry" />
        </mxCell>
        <mxCell id="DvX7Q-V9KSS2A6Bxxdae-17" value="+ set_local_transform(Mat4): void" style="text;strokeColor=none;fillColor=none;align=left;verticalAlign=top;spacingLeft=4;spacingRight=4;overflow=hidden;rotatable=0;points=[[0,0.5],[1,0.5]];portConstraint=eastwest;whiteSpace=wrap;html=1;" parent="WOpbR7FTokG8izxAT013-25" vertex="1">
          <mxGeometry y="168" width="350" height="26" as="geometry" />
        </mxCell>
        <mxCell id="ojAoNzEasB_hIK-gFztl-7" value="+ get_global_transform(): Mat4" style="text;strokeColor=none;fillColor=none;align=left;verticalAlign=top;spacingLeft=4;spacingRight=4;overflow=hidden;rotatable=0;points=[[0,0.5],[1,0.5]];portConstraint=eastwest;whiteSpace=wrap;html=1;" parent="WOpbR7FTokG8izxAT013-25" vertex="1">
          <mxGeometry y="194" width="350" height="26" as="geometry" />
        </mxCell>
        <mxCell id="ojAoNzEasB_hIK-gFztl-39" value="+ add_child(njNode*): void" style="text;strokeColor=none;fillColor=none;align=left;verticalAlign=top;spacingLeft=4;spacingRight=4;overflow=hidden;rotatable=0;points=[[0,0.5],[1,0.5]];portConstraint=eastwest;whiteSpace=wrap;html=1;" parent="WOpbR7FTokG8izxAT013-25" vertex="1">
          <mxGeometry y="220" width="350" height="26" as="geometry" />
        </mxCell>
        <mxCell id="ojAoNzEasB_hIK-gFztl-40" value="+ remove_child(njNode*): void" style="text;strokeColor=none;fillColor=none;align=left;verticalAlign=top;spacingLeft=4;spacingRight=4;overflow=hidden;rotatable=0;points=[[0,0.5],[1,0.5]];portConstraint=eastwest;whiteSpace=wrap;html=1;" parent="WOpbR7FTokG8izxAT013-25" vertex="1">
          <mxGeometry y="246" width="350" height="26" as="geometry" />
        </mxCell>
        <mxCell id="ojAoNzEasB_hIK-gFztl-41" value="+ njNode(name: String, local_transform: Mat4): njNode" style="text;strokeColor=none;fillColor=none;align=left;verticalAlign=top;spacingLeft=4;spacingRight=4;overflow=hidden;rotatable=0;points=[[0,0.5],[1,0.5]];portConstraint=eastwest;whiteSpace=wrap;html=1;" parent="WOpbR7FTokG8izxAT013-25" vertex="1">
          <mxGeometry y="272" width="350" height="34" as="geometry" />
        </mxCell>
        <mxCell id="WOpbR7FTokG8izxAT013-31" value="*" style="endArrow=open;html=1;endSize=12;startArrow=diamondThin;startSize=14;startFill=0;edgeStyle=orthogonalEdgeStyle;align=left;verticalAlign=bottom;rounded=0;" parent="1" source="WOpbR7FTokG8izxAT013-6" target="ojAoNzEasB_hIK-gFztl-26" edge="1">
          <mxGeometry x="-0.9446" y="-10" relative="1" as="geometry">
            <mxPoint x="-600" y="1330" as="sourcePoint" />
            <mxPoint x="-800" y="1376" as="targetPoint" />
            <mxPoint as="offset" />
          </mxGeometry>
        </mxCell>
        <mxCell id="WOpbR7FTokG8izxAT013-37" value="1" style="endArrow=open;html=1;endSize=12;startArrow=diamondThin;startSize=14;startFill=0;edgeStyle=orthogonalEdgeStyle;align=left;verticalAlign=bottom;rounded=0;" parent="1" source="WOpbR7FTokG8izxAT013-16" target="WOpbR7FTokG8izxAT013-7" edge="1">
          <mxGeometry x="-1" y="3" relative="1" as="geometry">
            <mxPoint x="920" y="340" as="sourcePoint" />
            <mxPoint x="780" y="120" as="targetPoint" />
          </mxGeometry>
        </mxCell>
        <mxCell id="DQbk1H4CkzqLR5i6f90b-2" value="njVertexCreateInfo" style="swimlane;fontStyle=0;childLayout=stackLayout;horizontal=1;startSize=26;fillColor=none;horizontalStack=0;resizeParent=1;resizeParentMax=0;resizeLast=0;collapsible=1;marginBottom=0;whiteSpace=wrap;html=1;" parent="1" vertex="1">
          <mxGeometry x="295" y="1120" width="260" height="156" as="geometry" />
        </mxCell>
        <mxCell id="DQbk1H4CkzqLR5i6f90b-3" value="+ position: Optional&amp;lt;njVec3f&amp;gt;" style="text;strokeColor=none;fillColor=none;align=left;verticalAlign=top;spacingLeft=4;spacingRight=4;overflow=hidden;rotatable=0;points=[[0,0.5],[1,0.5]];portConstraint=eastwest;whiteSpace=wrap;html=1;" parent="DQbk1H4CkzqLR5i6f90b-2" vertex="1">
          <mxGeometry y="26" width="260" height="26" as="geometry" />
        </mxCell>
        <mxCell id="DQbk1H4CkzqLR5i6f90b-4" value="+ color: Optional&amp;lt;njVec3f&amp;gt;" style="text;strokeColor=none;fillColor=none;align=left;verticalAlign=top;spacingLeft=4;spacingRight=4;overflow=hidden;rotatable=0;points=[[0,0.5],[1,0.5]];portConstraint=eastwest;whiteSpace=wrap;html=1;" parent="DQbk1H4CkzqLR5i6f90b-2" vertex="1">
          <mxGeometry y="52" width="260" height="26" as="geometry" />
        </mxCell>
        <mxCell id="DQbk1H4CkzqLR5i6f90b-5" value="+ normal: Optional&amp;lt;njVec3f&amp;gt;" style="text;strokeColor=none;fillColor=none;align=left;verticalAlign=top;spacingLeft=4;spacingRight=4;overflow=hidden;rotatable=0;points=[[0,0.5],[1,0.5]];portConstraint=eastwest;whiteSpace=wrap;html=1;" parent="DQbk1H4CkzqLR5i6f90b-2" vertex="1">
          <mxGeometry y="78" width="260" height="26" as="geometry" />
        </mxCell>
        <mxCell id="DQbk1H4CkzqLR5i6f90b-6" value="+ tangent: Optional&amp;lt;njVec4f&amp;gt;" style="text;strokeColor=none;fillColor=none;align=left;verticalAlign=top;spacingLeft=4;spacingRight=4;overflow=hidden;rotatable=0;points=[[0,0.5],[1,0.5]];portConstraint=eastwest;whiteSpace=wrap;html=1;" parent="DQbk1H4CkzqLR5i6f90b-2" vertex="1">
          <mxGeometry y="104" width="260" height="26" as="geometry" />
        </mxCell>
        <mxCell id="DQbk1H4CkzqLR5i6f90b-7" value="+ tex_coord: Optional&amp;lt;njVec2f&amp;gt;" style="text;strokeColor=none;fillColor=none;align=left;verticalAlign=top;spacingLeft=4;spacingRight=4;overflow=hidden;rotatable=0;points=[[0,0.5],[1,0.5]];portConstraint=eastwest;whiteSpace=wrap;html=1;" parent="DQbk1H4CkzqLR5i6f90b-2" vertex="1">
          <mxGeometry y="130" width="260" height="26" as="geometry" />
        </mxCell>
        <mxCell id="8UkWTqH4XTUdMWiF4pyD-1" value="MeshBuilder" style="swimlane;fontStyle=1;align=center;verticalAlign=top;childLayout=stackLayout;horizontal=1;startSize=26;horizontalStack=0;resizeParent=1;resizeParentMax=0;resizeLast=0;collapsible=1;marginBottom=0;whiteSpace=wrap;html=1;" parent="1" vertex="1">
          <mxGeometry x="-690" y="950" width="300" height="138" as="geometry" />
        </mxCell>
        <mxCell id="8UkWTqH4XTUdMWiF4pyD-3" value="" style="line;strokeWidth=1;fillColor=none;align=left;verticalAlign=middle;spacingTop=-1;spacingLeft=3;spacingRight=3;rotatable=0;labelPosition=right;points=[];portConstraint=eastwest;strokeColor=inherit;" parent="8UkWTqH4XTUdMWiF4pyD-1" vertex="1">
          <mxGeometry y="26" width="300" height="8" as="geometry" />
        </mxCell>
        <mxCell id="8UkWTqH4XTUdMWiF4pyD-4" value="+ add_position_attributes(Array&amp;lt;njVec3f&amp;gt;): void" style="text;strokeColor=none;fillColor=none;align=left;verticalAlign=top;spacingLeft=4;spacingRight=4;overflow=hidden;rotatable=0;points=[[0,0.5],[1,0.5]];portConstraint=eastwest;whiteSpace=wrap;html=1;" parent="8UkWTqH4XTUdMWiF4pyD-1" vertex="1">
          <mxGeometry y="34" width="300" height="26" as="geometry" />
        </mxCell>
        <mxCell id="8UkWTqH4XTUdMWiF4pyD-5" value="+ add_normal_attributes(Array&amp;lt;njVec3f&amp;gt;): void" style="text;strokeColor=none;fillColor=none;align=left;verticalAlign=top;spacingLeft=4;spacingRight=4;overflow=hidden;rotatable=0;points=[[0,0.5],[1,0.5]];portConstraint=eastwest;whiteSpace=wrap;html=1;" parent="8UkWTqH4XTUdMWiF4pyD-1" vertex="1">
          <mxGeometry y="60" width="300" height="26" as="geometry" />
        </mxCell>
        <mxCell id="8UkWTqH4XTUdMWiF4pyD-6" value="+ add_tangent_attributes(Array&amp;lt;njVec3f&amp;gt;): void" style="text;strokeColor=none;fillColor=none;align=left;verticalAlign=top;spacingLeft=4;spacingRight=4;overflow=hidden;rotatable=0;points=[[0,0.5],[1,0.5]];portConstraint=eastwest;whiteSpace=wrap;html=1;" parent="8UkWTqH4XTUdMWiF4pyD-1" vertex="1">
          <mxGeometry y="86" width="300" height="26" as="geometry" />
        </mxCell>
        <mxCell id="8UkWTqH4XTUdMWiF4pyD-7" value="+ build(): njMesh" style="text;strokeColor=none;fillColor=none;align=left;verticalAlign=top;spacingLeft=4;spacingRight=4;overflow=hidden;rotatable=0;points=[[0,0.5],[1,0.5]];portConstraint=eastwest;whiteSpace=wrap;html=1;" parent="8UkWTqH4XTUdMWiF4pyD-1" vertex="1">
          <mxGeometry y="112" width="300" height="26" as="geometry" />
        </mxCell>
        <mxCell id="139kHUoA4rNyHdph3f0p-1" value="" style="endArrow=open;endFill=1;endSize=12;html=1;rounded=0;edgeStyle=orthogonalEdgeStyle;" parent="1" source="WOpbR7FTokG8izxAT013-19" target="DQbk1H4CkzqLR5i6f90b-2" edge="1">
          <mxGeometry width="160" relative="1" as="geometry">
            <mxPoint x="1190" y="270" as="sourcePoint" />
            <mxPoint x="1350" y="270" as="targetPoint" />
          </mxGeometry>
        </mxCell>
        <mxCell id="ojAoNzEasB_hIK-gFztl-1" value="njScene" style="swimlane;fontStyle=1;align=center;verticalAlign=top;childLayout=stackLayout;horizontal=1;startSize=26;horizontalStack=0;resizeParent=1;resizeParentMax=0;resizeLast=0;collapsible=1;marginBottom=0;whiteSpace=wrap;html=1;" parent="1" vertex="1">
          <mxGeometry x="-1290" y="260" width="310" height="320" as="geometry" />
        </mxCell>
        <mxCell id="ojAoNzEasB_hIK-gFztl-2" value="- nodes_: Array&amp;lt;njNode&amp;gt;" style="text;strokeColor=none;fillColor=none;align=left;verticalAlign=top;spacingLeft=4;spacingRight=4;overflow=hidden;rotatable=0;points=[[0,0.5],[1,0.5]];portConstraint=eastwest;whiteSpace=wrap;html=1;" parent="ojAoNzEasB_hIK-gFztl-1" vertex="1">
          <mxGeometry y="26" width="310" height="26" as="geometry" />
        </mxCell>
        <mxCell id="ojAoNzEasB_hIK-gFztl-29" value="- cameras_: Array&amp;lt;njCamera&amp;gt;" style="text;strokeColor=none;fillColor=none;align=left;verticalAlign=top;spacingLeft=4;spacingRight=4;overflow=hidden;rotatable=0;points=[[0,0.5],[1,0.5]];portConstraint=eastwest;whiteSpace=wrap;html=1;" parent="ojAoNzEasB_hIK-gFztl-1" vertex="1">
          <mxGeometry y="52" width="310" height="26" as="geometry" />
        </mxCell>
        <mxCell id="ojAoNzEasB_hIK-gFztl-30" value="- meshes_: Array&amp;lt;njMesh&amp;gt;" style="text;strokeColor=none;fillColor=none;align=left;verticalAlign=top;spacingLeft=4;spacingRight=4;overflow=hidden;rotatable=0;points=[[0,0.5],[1,0.5]];portConstraint=eastwest;whiteSpace=wrap;html=1;" parent="ojAoNzEasB_hIK-gFztl-1" vertex="1">
          <mxGeometry y="78" width="310" height="26" as="geometry" />
        </mxCell>
        <mxCell id="ojAoNzEasB_hIK-gFztl-28" value="- active_camera_: njCamera*" style="text;strokeColor=none;fillColor=none;align=left;verticalAlign=top;spacingLeft=4;spacingRight=4;overflow=hidden;rotatable=0;points=[[0,0.5],[1,0.5]];portConstraint=eastwest;whiteSpace=wrap;html=1;" parent="ojAoNzEasB_hIK-gFztl-1" vertex="1">
          <mxGeometry y="104" width="310" height="26" as="geometry" />
        </mxCell>
        <mxCell id="ojAoNzEasB_hIK-gFztl-13" value="- root_node_: njNode*" style="text;strokeColor=none;fillColor=none;align=left;verticalAlign=top;spacingLeft=4;spacingRight=4;overflow=hidden;rotatable=0;points=[[0,0.5],[1,0.5]];portConstraint=eastwest;whiteSpace=wrap;html=1;" parent="ojAoNzEasB_hIK-gFztl-1" vertex="1">
          <mxGeometry y="130" width="310" height="26" as="geometry" />
        </mxCell>
        <mxCell id="ojAoNzEasB_hIK-gFztl-3" value="" style="line;strokeWidth=1;fillColor=none;align=left;verticalAlign=middle;spacingTop=-1;spacingLeft=3;spacingRight=3;rotatable=0;labelPosition=right;points=[];portConstraint=eastwest;strokeColor=inherit;" parent="ojAoNzEasB_hIK-gFztl-1" vertex="1">
          <mxGeometry y="156" width="310" height="8" as="geometry" />
        </mxCell>
        <mxCell id="ojAoNzEasB_hIK-gFztl-4" value="+ add_node(njNodeCreateInfo): void" style="text;strokeColor=none;fillColor=none;align=left;verticalAlign=top;spacingLeft=4;spacingRight=4;overflow=hidden;rotatable=0;points=[[0,0.5],[1,0.5]];portConstraint=eastwest;whiteSpace=wrap;html=1;" parent="ojAoNzEasB_hIK-gFztl-1" vertex="1">
          <mxGeometry y="164" width="310" height="26" as="geometry" />
        </mxCell>
        <mxCell id="DvX7Q-V9KSS2A6Bxxdae-15" value="+ add_camera(njCameraCreateInfo): void" style="text;strokeColor=none;fillColor=none;align=left;verticalAlign=top;spacingLeft=4;spacingRight=4;overflow=hidden;rotatable=0;points=[[0,0.5],[1,0.5]];portConstraint=eastwest;whiteSpace=wrap;html=1;" parent="ojAoNzEasB_hIK-gFztl-1" vertex="1">
          <mxGeometry y="190" width="310" height="26" as="geometry" />
        </mxCell>
        <mxCell id="DvX7Q-V9KSS2A6Bxxdae-16" value="+ add_mesh(njMeshCreateInfo): void" style="text;strokeColor=none;fillColor=none;align=left;verticalAlign=top;spacingLeft=4;spacingRight=4;overflow=hidden;rotatable=0;points=[[0,0.5],[1,0.5]];portConstraint=eastwest;whiteSpace=wrap;html=1;" parent="ojAoNzEasB_hIK-gFztl-1" vertex="1">
          <mxGeometry y="216" width="310" height="26" as="geometry" />
        </mxCell>
        <mxCell id="ojAoNzEasB_hIK-gFztl-14" value="+ get_root(): njNode*" style="text;strokeColor=none;fillColor=none;align=left;verticalAlign=top;spacingLeft=4;spacingRight=4;overflow=hidden;rotatable=0;points=[[0,0.5],[1,0.5]];portConstraint=eastwest;whiteSpace=wrap;html=1;" parent="ojAoNzEasB_hIK-gFztl-1" vertex="1">
          <mxGeometry y="242" width="310" height="26" as="geometry" />
        </mxCell>
        <mxCell id="ojAoNzEasB_hIK-gFztl-15" value="+ get_active_camera(): njCamera*" style="text;strokeColor=none;fillColor=none;align=left;verticalAlign=top;spacingLeft=4;spacingRight=4;overflow=hidden;rotatable=0;points=[[0,0.5],[1,0.5]];portConstraint=eastwest;whiteSpace=wrap;html=1;" parent="ojAoNzEasB_hIK-gFztl-1" vertex="1">
          <mxGeometry y="268" width="310" height="26" as="geometry" />
        </mxCell>
        <mxCell id="ojAoNzEasB_hIK-gFztl-48" value="+ get_meshes(): Array&amp;lt;njMesh*&amp;gt;" style="text;strokeColor=none;fillColor=none;align=left;verticalAlign=top;spacingLeft=4;spacingRight=4;overflow=hidden;rotatable=0;points=[[0,0.5],[1,0.5]];portConstraint=eastwest;whiteSpace=wrap;html=1;" parent="ojAoNzEasB_hIK-gFztl-1" vertex="1">
          <mxGeometry y="294" width="310" height="26" as="geometry" />
        </mxCell>
        <mxCell id="ojAoNzEasB_hIK-gFztl-9" value="njCamera" style="swimlane;fontStyle=1;align=center;verticalAlign=top;childLayout=stackLayout;horizontal=1;startSize=26;horizontalStack=0;resizeParent=1;resizeParentMax=0;resizeLast=0;collapsible=1;marginBottom=0;whiteSpace=wrap;html=1;" parent="1" vertex="1">
          <mxGeometry x="-660" y="520" width="270" height="112" as="geometry" />
        </mxCell>
        <mxCell id="ojAoNzEasB_hIK-gFztl-10" value="- node_: njNode*" style="text;strokeColor=none;fillColor=none;align=left;verticalAlign=top;spacingLeft=4;spacingRight=4;overflow=hidden;rotatable=0;points=[[0,0.5],[1,0.5]];portConstraint=eastwest;whiteSpace=wrap;html=1;" parent="ojAoNzEasB_hIK-gFztl-9" vertex="1">
          <mxGeometry y="26" width="270" height="26" as="geometry" />
        </mxCell>
        <mxCell id="ojAoNzEasB_hIK-gFztl-11" value="" style="line;strokeWidth=1;fillColor=none;align=left;verticalAlign=middle;spacingTop=-1;spacingLeft=3;spacingRight=3;rotatable=0;labelPosition=right;points=[];portConstraint=eastwest;strokeColor=inherit;" parent="ojAoNzEasB_hIK-gFztl-9" vertex="1">
          <mxGeometry y="52" width="270" height="8" as="geometry" />
        </mxCell>
        <mxCell id="ojAoNzEasB_hIK-gFztl-18" value="+ Camera(njNode*): Camera" style="text;strokeColor=none;fillColor=none;align=left;verticalAlign=top;spacingLeft=4;spacingRight=4;overflow=hidden;rotatable=0;points=[[0,0.5],[1,0.5]];portConstraint=eastwest;whiteSpace=wrap;html=1;" parent="ojAoNzEasB_hIK-gFztl-9" vertex="1">
          <mxGeometry y="60" width="270" height="26" as="geometry" />
        </mxCell>
        <mxCell id="ojAoNzEasB_hIK-gFztl-12" value="+ look_at(target: Vec3, up: Vec3): void" style="text;strokeColor=none;fillColor=none;align=left;verticalAlign=top;spacingLeft=4;spacingRight=4;overflow=hidden;rotatable=0;points=[[0,0.5],[1,0.5]];portConstraint=eastwest;whiteSpace=wrap;html=1;" parent="ojAoNzEasB_hIK-gFztl-9" vertex="1">
          <mxGeometry y="86" width="270" height="26" as="geometry" />
        </mxCell>
        <mxCell id="ojAoNzEasB_hIK-gFztl-25" value="" style="endArrow=open;endFill=1;endSize=12;html=1;rounded=0;edgeStyle=orthogonalEdgeStyle;" parent="1" source="8UkWTqH4XTUdMWiF4pyD-7" target="WOpbR7FTokG8izxAT013-1" edge="1">
          <mxGeometry width="160" relative="1" as="geometry">
            <mxPoint x="-1260" y="1230" as="sourcePoint" />
            <mxPoint x="-1235" y="1020" as="targetPoint" />
          </mxGeometry>
        </mxCell>
        <mxCell id="ojAoNzEasB_hIK-gFztl-35" value="njNodeCreateInfo" style="swimlane;fontStyle=0;childLayout=stackLayout;horizontal=1;startSize=26;fillColor=none;horizontalStack=0;resizeParent=1;resizeParentMax=0;resizeLast=0;collapsible=1;marginBottom=0;whiteSpace=wrap;html=1;" parent="1" vertex="1">
          <mxGeometry x="100" y="480" width="140" height="78" as="geometry" />
        </mxCell>
        <mxCell id="ojAoNzEasB_hIK-gFztl-36" value="+ name: String" style="text;strokeColor=none;fillColor=none;align=left;verticalAlign=top;spacingLeft=4;spacingRight=4;overflow=hidden;rotatable=0;points=[[0,0.5],[1,0.5]];portConstraint=eastwest;whiteSpace=wrap;html=1;" parent="ojAoNzEasB_hIK-gFztl-35" vertex="1">
          <mxGeometry y="26" width="140" height="26" as="geometry" />
        </mxCell>
        <mxCell id="ojAoNzEasB_hIK-gFztl-37" value="+ transform: njMat4f" style="text;strokeColor=none;fillColor=none;align=left;verticalAlign=top;spacingLeft=4;spacingRight=4;overflow=hidden;rotatable=0;points=[[0,0.5],[1,0.5]];portConstraint=eastwest;whiteSpace=wrap;html=1;" parent="ojAoNzEasB_hIK-gFztl-35" vertex="1">
          <mxGeometry y="52" width="140" height="26" as="geometry" />
        </mxCell>
        <mxCell id="ojAoNzEasB_hIK-gFztl-42" value="" style="endArrow=open;endFill=1;endSize=12;html=1;rounded=0;edgeStyle=orthogonalEdgeStyle;" parent="1" source="ojAoNzEasB_hIK-gFztl-41" target="ojAoNzEasB_hIK-gFztl-35" edge="1">
          <mxGeometry width="160" relative="1" as="geometry">
            <mxPoint x="-340" y="440" as="sourcePoint" />
            <mxPoint x="-180" y="440" as="targetPoint" />
          </mxGeometry>
        </mxCell>
        <mxCell id="ojAoNzEasB_hIK-gFztl-43" value="" style="endArrow=diamondThin;endFill=0;endSize=24;html=1;rounded=0;edgeStyle=orthogonalEdgeStyle;" parent="1" source="ojAoNzEasB_hIK-gFztl-2" target="WOpbR7FTokG8izxAT013-25" edge="1">
          <mxGeometry width="160" relative="1" as="geometry">
            <mxPoint x="-620" y="320" as="sourcePoint" />
            <mxPoint x="-460" y="320" as="targetPoint" />
          </mxGeometry>
        </mxCell>
        <mxCell id="ojAoNzEasB_hIK-gFztl-44" value="" style="endArrow=diamondThin;endFill=0;endSize=24;html=1;rounded=0;edgeStyle=orthogonalEdgeStyle;" parent="1" source="ojAoNzEasB_hIK-gFztl-29" target="ojAoNzEasB_hIK-gFztl-9" edge="1">
          <mxGeometry width="160" relative="1" as="geometry">
            <mxPoint x="-740" y="420" as="sourcePoint" />
            <mxPoint x="-580" y="420" as="targetPoint" />
          </mxGeometry>
        </mxCell>
        <mxCell id="ojAoNzEasB_hIK-gFztl-45" value="" style="endArrow=diamondThin;endFill=0;endSize=24;html=1;rounded=0;edgeStyle=orthogonalEdgeStyle;" parent="1" source="ojAoNzEasB_hIK-gFztl-9" target="WOpbR7FTokG8izxAT013-25" edge="1">
          <mxGeometry width="160" relative="1" as="geometry">
            <mxPoint x="-280" y="610" as="sourcePoint" />
            <mxPoint x="-120" y="610" as="targetPoint" />
          </mxGeometry>
        </mxCell>
        <mxCell id="ojAoNzEasB_hIK-gFztl-46" value="" style="endArrow=diamondThin;endFill=0;endSize=24;html=1;rounded=0;edgeStyle=orthogonalEdgeStyle;" parent="1" source="ojAoNzEasB_hIK-gFztl-30" target="WOpbR7FTokG8izxAT013-1" edge="1">
          <mxGeometry width="160" relative="1" as="geometry">
            <mxPoint x="-560" y="640" as="sourcePoint" />
            <mxPoint x="-400" y="640" as="targetPoint" />
          </mxGeometry>
        </mxCell>
        <mxCell id="ojAoNzEasB_hIK-gFztl-52" value="&amp;nbsp;" style="swimlane;fontStyle=0;childLayout=stackLayout;horizontal=1;startSize=26;fillColor=none;horizontalStack=0;resizeParent=1;resizeParentMax=0;resizeLast=0;collapsible=1;marginBottom=0;whiteSpace=wrap;html=1;" parent="1" vertex="1">
          <mxGeometry x="-1305" y="60" width="340" height="52" as="geometry" />
        </mxCell>
        <mxCell id="ojAoNzEasB_hIK-gFztl-53" value="+ get_vertices(): Array&amp;lt;njVertex&amp;gt;" style="text;strokeColor=none;fillColor=none;align=left;verticalAlign=top;spacingLeft=4;spacingRight=4;overflow=hidden;rotatable=0;points=[[0,0.5],[1,0.5]];portConstraint=eastwest;whiteSpace=wrap;html=1;" parent="ojAoNzEasB_hIK-gFztl-52" vertex="1">
          <mxGeometry y="26" width="340" height="26" as="geometry" />
        </mxCell>
        <mxCell id="ojAoNzEasB_hIK-gFztl-56" value="Extends" style="endArrow=block;endSize=16;endFill=0;html=1;rounded=0;" parent="1" source="ojAoNzEasB_hIK-gFztl-1" target="ojAoNzEasB_hIK-gFztl-52" edge="1">
          <mxGeometry width="160" relative="1" as="geometry">
            <mxPoint x="-1480" y="370" as="sourcePoint" />
            <mxPoint x="-1320" y="370" as="targetPoint" />
          </mxGeometry>
        </mxCell>
        <mxCell id="DvX7Q-V9KSS2A6Bxxdae-1" value="njSceneReader" style="swimlane;fontStyle=1;align=center;verticalAlign=top;childLayout=stackLayout;horizontal=1;startSize=26;horizontalStack=0;resizeParent=1;resizeParentMax=0;resizeLast=0;collapsible=1;marginBottom=0;whiteSpace=wrap;html=1;" parent="1" vertex="1">
          <mxGeometry x="-1760" y="230" width="260" height="112" as="geometry" />
        </mxCell>
        <mxCell id="DvX7Q-V9KSS2A6Bxxdae-2" value="+ field: type" style="text;strokeColor=none;fillColor=none;align=left;verticalAlign=top;spacingLeft=4;spacingRight=4;overflow=hidden;rotatable=0;points=[[0,0.5],[1,0.5]];portConstraint=eastwest;whiteSpace=wrap;html=1;" parent="DvX7Q-V9KSS2A6Bxxdae-1" vertex="1">
          <mxGeometry y="26" width="260" height="26" as="geometry" />
        </mxCell>
        <mxCell id="DvX7Q-V9KSS2A6Bxxdae-3" value="" style="line;strokeWidth=1;fillColor=none;align=left;verticalAlign=middle;spacingTop=-1;spacingLeft=3;spacingRight=3;rotatable=0;labelPosition=right;points=[];portConstraint=eastwest;strokeColor=inherit;" parent="DvX7Q-V9KSS2A6Bxxdae-1" vertex="1">
          <mxGeometry y="52" width="260" height="8" as="geometry" />
        </mxCell>
        <mxCell id="DvX7Q-V9KSS2A6Bxxdae-4" value="+ njSceneReader(String): njSceneReader" style="text;strokeColor=none;fillColor=none;align=left;verticalAlign=top;spacingLeft=4;spacingRight=4;overflow=hidden;rotatable=0;points=[[0,0.5],[1,0.5]];portConstraint=eastwest;whiteSpace=wrap;html=1;" parent="DvX7Q-V9KSS2A6Bxxdae-1" vertex="1">
          <mxGeometry y="60" width="260" height="26" as="geometry" />
        </mxCell>
        <mxCell id="DvX7Q-V9KSS2A6Bxxdae-13" value="+ get_scene(): Scene" style="text;strokeColor=none;fillColor=none;align=left;verticalAlign=top;spacingLeft=4;spacingRight=4;overflow=hidden;rotatable=0;points=[[0,0.5],[1,0.5]];portConstraint=eastwest;whiteSpace=wrap;html=1;" parent="DvX7Q-V9KSS2A6Bxxdae-1" vertex="1">
          <mxGeometry y="86" width="260" height="26" as="geometry" />
        </mxCell>
        <mxCell id="DvX7Q-V9KSS2A6Bxxdae-14" value="" style="endArrow=open;endFill=1;endSize=12;html=1;rounded=0;edgeStyle=orthogonalEdgeStyle;" parent="1" source="DvX7Q-V9KSS2A6Bxxdae-13" target="ojAoNzEasB_hIK-gFztl-1" edge="1">
          <mxGeometry width="160" relative="1" as="geometry">
            <mxPoint x="-1500" y="400" as="sourcePoint" />
            <mxPoint x="-1340" y="400" as="targetPoint" />
          </mxGeometry>
        </mxCell>
      </root>
    </mxGraphModel>
  </diagram>
  <diagram id="4YcfpiguGd_nhWcgXD_V" name="MeshRegistry">
    <mxGraphModel dx="1434" dy="836" grid="1" gridSize="10" guides="1" tooltips="1" connect="1" arrows="1" fold="1" page="1" pageScale="1" pageWidth="850" pageHeight="1100" math="0" shadow="0">
      <root>
        <mxCell id="0" />
        <mxCell id="1" parent="0" />
        <mxCell id="E0Pf59BHiWh8xUhCjLEk-5" value="MeshRegistry" style="swimlane;fontStyle=1;align=center;verticalAlign=top;childLayout=stackLayout;horizontal=1;startSize=26;horizontalStack=0;resizeParent=1;resizeParentMax=0;resizeLast=0;collapsible=1;marginBottom=0;whiteSpace=wrap;html=1;" vertex="1" parent="1">
          <mxGeometry x="80" y="350" width="380" height="86" as="geometry" />
        </mxCell>
        <mxCell id="E0Pf59BHiWh8xUhCjLEk-6" value="- registry_: Map&amp;lt;MeshName, njMesh&amp;gt;" style="text;strokeColor=none;fillColor=none;align=left;verticalAlign=top;spacingLeft=4;spacingRight=4;overflow=hidden;rotatable=0;points=[[0,0.5],[1,0.5]];portConstraint=eastwest;whiteSpace=wrap;html=1;" vertex="1" parent="E0Pf59BHiWh8xUhCjLEk-5">
          <mxGeometry y="26" width="380" height="26" as="geometry" />
        </mxCell>
        <mxCell id="E0Pf59BHiWh8xUhCjLEk-7" value="" style="line;strokeWidth=1;fillColor=none;align=left;verticalAlign=middle;spacingTop=-1;spacingLeft=3;spacingRight=3;rotatable=0;labelPosition=right;points=[];portConstraint=eastwest;strokeColor=inherit;" vertex="1" parent="E0Pf59BHiWh8xUhCjLEk-5">
          <mxGeometry y="52" width="380" height="8" as="geometry" />
        </mxCell>
        <mxCell id="E0Pf59BHiWh8xUhCjLEk-8" value="+ method(type): type" style="text;strokeColor=none;fillColor=none;align=left;verticalAlign=top;spacingLeft=4;spacingRight=4;overflow=hidden;rotatable=0;points=[[0,0.5],[1,0.5]];portConstraint=eastwest;whiteSpace=wrap;html=1;" vertex="1" parent="E0Pf59BHiWh8xUhCjLEk-5">
          <mxGeometry y="60" width="380" height="26" as="geometry" />
        </mxCell>
      </root>
    </mxGraphModel>
  </diagram>
  <diagram id="zsTusW7s9ZuN1pHyiFP_" name="Scene">
    <mxGraphModel dx="1434" dy="836" grid="1" gridSize="10" guides="1" tooltips="1" connect="1" arrows="1" fold="1" page="1" pageScale="1" pageWidth="850" pageHeight="1100" math="0" shadow="0">
      <root>
        <mxCell id="0" />
        <mxCell id="1" parent="0" />
      </root>
    </mxGraphModel>
  </diagram>
  <diagram id="O5O0_XcLrSY7kcQ6TJNl" name="ECS">
    <mxGraphModel dx="2537" dy="984" grid="1" gridSize="10" guides="1" tooltips="1" connect="1" arrows="1" fold="1" page="1" pageScale="1" pageWidth="850" pageHeight="1100" math="0" shadow="0">
      <root>
        <mxCell id="0" />
        <mxCell id="1" parent="0" />
        <mxCell id="6gKi86VB5AvovJCNx1mg-5" value="njEntityManager" style="swimlane;fontStyle=1;align=center;verticalAlign=top;childLayout=stackLayout;horizontal=1;startSize=26;horizontalStack=0;resizeParent=1;resizeParentMax=0;resizeLast=0;collapsible=1;marginBottom=0;whiteSpace=wrap;html=1;" vertex="1" parent="1">
          <mxGeometry x="5" y="740" width="420" height="138" as="geometry" />
        </mxCell>
        <mxCell id="6gKi86VB5AvovJCNx1mg-6" value="- components: Map&amp;lt;ComponentTypeId, njComponentMapInterface&amp;gt;" style="text;strokeColor=none;fillColor=none;align=left;verticalAlign=top;spacingLeft=4;spacingRight=4;overflow=hidden;rotatable=0;points=[[0,0.5],[1,0.5]];portConstraint=eastwest;whiteSpace=wrap;html=1;" vertex="1" parent="6gKi86VB5AvovJCNx1mg-5">
          <mxGeometry y="26" width="420" height="26" as="geometry" />
        </mxCell>
        <mxCell id="6gKi86VB5AvovJCNx1mg-7" value="" style="line;strokeWidth=1;fillColor=none;align=left;verticalAlign=middle;spacingTop=-1;spacingLeft=3;spacingRight=3;rotatable=0;labelPosition=right;points=[];portConstraint=eastwest;strokeColor=inherit;" vertex="1" parent="6gKi86VB5AvovJCNx1mg-5">
          <mxGeometry y="52" width="420" height="8" as="geometry" />
        </mxCell>
        <mxCell id="6gKi86VB5AvovJCNx1mg-8" value="+ add_entity(): EntityId" style="text;strokeColor=none;fillColor=none;align=left;verticalAlign=top;spacingLeft=4;spacingRight=4;overflow=hidden;rotatable=0;points=[[0,0.5],[1,0.5]];portConstraint=eastwest;whiteSpace=wrap;html=1;" vertex="1" parent="6gKi86VB5AvovJCNx1mg-5">
          <mxGeometry y="60" width="420" height="26" as="geometry" />
        </mxCell>
        <mxCell id="6gKi86VB5AvovJCNx1mg-78" value="+ add_component&amp;lt;T&amp;gt;(EntityId, T): void" style="text;strokeColor=none;fillColor=none;align=left;verticalAlign=top;spacingLeft=4;spacingRight=4;overflow=hidden;rotatable=0;points=[[0,0.5],[1,0.5]];portConstraint=eastwest;whiteSpace=wrap;html=1;" vertex="1" parent="6gKi86VB5AvovJCNx1mg-5">
          <mxGeometry y="86" width="420" height="26" as="geometry" />
        </mxCell>
        <mxCell id="6gKi86VB5AvovJCNx1mg-92" value="+ get_view&amp;lt;T...&amp;gt;(): Tuple&amp;lt;T...&amp;gt;" style="text;strokeColor=none;fillColor=none;align=left;verticalAlign=top;spacingLeft=4;spacingRight=4;overflow=hidden;rotatable=0;points=[[0,0.5],[1,0.5]];portConstraint=eastwest;whiteSpace=wrap;html=1;" vertex="1" parent="6gKi86VB5AvovJCNx1mg-5">
          <mxGeometry y="112" width="420" height="26" as="geometry" />
        </mxCell>
        <mxCell id="6gKi86VB5AvovJCNx1mg-15" value="njTransformComponent" style="swimlane;fontStyle=1;align=center;verticalAlign=top;childLayout=stackLayout;horizontal=1;startSize=26;horizontalStack=0;resizeParent=1;resizeParentMax=0;resizeLast=0;collapsible=1;marginBottom=0;whiteSpace=wrap;html=1;" vertex="1" parent="1">
          <mxGeometry x="-20" y="1424" width="230" height="138" as="geometry" />
        </mxCell>
        <mxCell id="6gKi86VB5AvovJCNx1mg-66" value="+ x: float" style="text;strokeColor=none;fillColor=none;align=left;verticalAlign=top;spacingLeft=4;spacingRight=4;overflow=hidden;rotatable=0;points=[[0,0.5],[1,0.5]];portConstraint=eastwest;whiteSpace=wrap;html=1;" vertex="1" parent="6gKi86VB5AvovJCNx1mg-15">
          <mxGeometry y="26" width="230" height="26" as="geometry" />
        </mxCell>
        <mxCell id="6gKi86VB5AvovJCNx1mg-67" value="+ y: float" style="text;strokeColor=none;fillColor=none;align=left;verticalAlign=top;spacingLeft=4;spacingRight=4;overflow=hidden;rotatable=0;points=[[0,0.5],[1,0.5]];portConstraint=eastwest;whiteSpace=wrap;html=1;" vertex="1" parent="6gKi86VB5AvovJCNx1mg-15">
          <mxGeometry y="52" width="230" height="26" as="geometry" />
        </mxCell>
        <mxCell id="6gKi86VB5AvovJCNx1mg-68" value="+ z: float" style="text;strokeColor=none;fillColor=none;align=left;verticalAlign=top;spacingLeft=4;spacingRight=4;overflow=hidden;rotatable=0;points=[[0,0.5],[1,0.5]];portConstraint=eastwest;whiteSpace=wrap;html=1;" vertex="1" parent="6gKi86VB5AvovJCNx1mg-15">
          <mxGeometry y="78" width="230" height="26" as="geometry" />
        </mxCell>
        <mxCell id="6gKi86VB5AvovJCNx1mg-17" value="" style="line;strokeWidth=1;fillColor=none;align=left;verticalAlign=middle;spacingTop=-1;spacingLeft=3;spacingRight=3;rotatable=0;labelPosition=right;points=[];portConstraint=eastwest;strokeColor=inherit;" vertex="1" parent="6gKi86VB5AvovJCNx1mg-15">
          <mxGeometry y="104" width="230" height="8" as="geometry" />
        </mxCell>
        <mxCell id="6gKi86VB5AvovJCNx1mg-18" value="+ method(type): type" style="text;strokeColor=none;fillColor=none;align=left;verticalAlign=top;spacingLeft=4;spacingRight=4;overflow=hidden;rotatable=0;points=[[0,0.5],[1,0.5]];portConstraint=eastwest;whiteSpace=wrap;html=1;" vertex="1" parent="6gKi86VB5AvovJCNx1mg-15">
          <mxGeometry y="112" width="230" height="26" as="geometry" />
        </mxCell>
        <mxCell id="6gKi86VB5AvovJCNx1mg-19" value="njMeshComponent" style="swimlane;fontStyle=1;align=center;verticalAlign=top;childLayout=stackLayout;horizontal=1;startSize=26;horizontalStack=0;resizeParent=1;resizeParentMax=0;resizeLast=0;collapsible=1;marginBottom=0;whiteSpace=wrap;html=1;" vertex="1" parent="1">
          <mxGeometry x="280" y="1420" width="230" height="60" as="geometry" />
        </mxCell>
        <mxCell id="6gKi86VB5AvovJCNx1mg-21" value="" style="line;strokeWidth=1;fillColor=none;align=left;verticalAlign=middle;spacingTop=-1;spacingLeft=3;spacingRight=3;rotatable=0;labelPosition=right;points=[];portConstraint=eastwest;strokeColor=inherit;" vertex="1" parent="6gKi86VB5AvovJCNx1mg-19">
          <mxGeometry y="26" width="230" height="8" as="geometry" />
        </mxCell>
        <mxCell id="6gKi86VB5AvovJCNx1mg-22" value="+ method(type): type" style="text;strokeColor=none;fillColor=none;align=left;verticalAlign=top;spacingLeft=4;spacingRight=4;overflow=hidden;rotatable=0;points=[[0,0.5],[1,0.5]];portConstraint=eastwest;whiteSpace=wrap;html=1;" vertex="1" parent="6gKi86VB5AvovJCNx1mg-19">
          <mxGeometry y="34" width="230" height="26" as="geometry" />
        </mxCell>
        <mxCell id="6gKi86VB5AvovJCNx1mg-24" value="njInputComponent" style="swimlane;fontStyle=1;align=center;verticalAlign=top;childLayout=stackLayout;horizontal=1;startSize=26;horizontalStack=0;resizeParent=1;resizeParentMax=0;resizeLast=0;collapsible=1;marginBottom=0;whiteSpace=wrap;html=1;" vertex="1" parent="1">
          <mxGeometry x="630" y="1420" width="230" height="164" as="geometry" />
        </mxCell>
        <mxCell id="6gKi86VB5AvovJCNx1mg-111" value="+ w: bool" style="text;strokeColor=none;fillColor=none;align=left;verticalAlign=top;spacingLeft=4;spacingRight=4;overflow=hidden;rotatable=0;points=[[0,0.5],[1,0.5]];portConstraint=eastwest;whiteSpace=wrap;html=1;" vertex="1" parent="6gKi86VB5AvovJCNx1mg-24">
          <mxGeometry y="26" width="230" height="26" as="geometry" />
        </mxCell>
        <mxCell id="6gKi86VB5AvovJCNx1mg-112" value="+ a: bool" style="text;strokeColor=none;fillColor=none;align=left;verticalAlign=top;spacingLeft=4;spacingRight=4;overflow=hidden;rotatable=0;points=[[0,0.5],[1,0.5]];portConstraint=eastwest;whiteSpace=wrap;html=1;" vertex="1" parent="6gKi86VB5AvovJCNx1mg-24">
          <mxGeometry y="52" width="230" height="26" as="geometry" />
        </mxCell>
        <mxCell id="6gKi86VB5AvovJCNx1mg-113" value="+ s: bool" style="text;strokeColor=none;fillColor=none;align=left;verticalAlign=top;spacingLeft=4;spacingRight=4;overflow=hidden;rotatable=0;points=[[0,0.5],[1,0.5]];portConstraint=eastwest;whiteSpace=wrap;html=1;" vertex="1" parent="6gKi86VB5AvovJCNx1mg-24">
          <mxGeometry y="78" width="230" height="26" as="geometry" />
        </mxCell>
        <mxCell id="6gKi86VB5AvovJCNx1mg-114" value="+ d: bool" style="text;strokeColor=none;fillColor=none;align=left;verticalAlign=top;spacingLeft=4;spacingRight=4;overflow=hidden;rotatable=0;points=[[0,0.5],[1,0.5]];portConstraint=eastwest;whiteSpace=wrap;html=1;" vertex="1" parent="6gKi86VB5AvovJCNx1mg-24">
          <mxGeometry y="104" width="230" height="26" as="geometry" />
        </mxCell>
        <mxCell id="6gKi86VB5AvovJCNx1mg-26" value="" style="line;strokeWidth=1;fillColor=none;align=left;verticalAlign=middle;spacingTop=-1;spacingLeft=3;spacingRight=3;rotatable=0;labelPosition=right;points=[];portConstraint=eastwest;strokeColor=inherit;" vertex="1" parent="6gKi86VB5AvovJCNx1mg-24">
          <mxGeometry y="130" width="230" height="8" as="geometry" />
        </mxCell>
        <mxCell id="6gKi86VB5AvovJCNx1mg-27" value="+ method(type): type" style="text;strokeColor=none;fillColor=none;align=left;verticalAlign=top;spacingLeft=4;spacingRight=4;overflow=hidden;rotatable=0;points=[[0,0.5],[1,0.5]];portConstraint=eastwest;whiteSpace=wrap;html=1;" vertex="1" parent="6gKi86VB5AvovJCNx1mg-24">
          <mxGeometry y="138" width="230" height="26" as="geometry" />
        </mxCell>
        <mxCell id="6gKi86VB5AvovJCNx1mg-34" value="njEngine" style="swimlane;fontStyle=1;align=center;verticalAlign=top;childLayout=stackLayout;horizontal=1;startSize=26;horizontalStack=0;resizeParent=1;resizeParentMax=0;resizeLast=0;collapsible=1;marginBottom=0;whiteSpace=wrap;html=1;" vertex="1" parent="1">
          <mxGeometry x="40" y="460" width="290" height="164" as="geometry" />
        </mxCell>
        <mxCell id="6gKi86VB5AvovJCNx1mg-35" value="- systems: Array&amp;lt;njSystem&amp;gt;" style="text;strokeColor=none;fillColor=none;align=left;verticalAlign=top;spacingLeft=4;spacingRight=4;overflow=hidden;rotatable=0;points=[[0,0.5],[1,0.5]];portConstraint=eastwest;whiteSpace=wrap;html=1;" vertex="1" parent="6gKi86VB5AvovJCNx1mg-34">
          <mxGeometry y="26" width="290" height="26" as="geometry" />
        </mxCell>
        <mxCell id="6gKi86VB5AvovJCNx1mg-39" value="- entities: njEntityManager" style="text;strokeColor=none;fillColor=none;align=left;verticalAlign=top;spacingLeft=4;spacingRight=4;overflow=hidden;rotatable=0;points=[[0,0.5],[1,0.5]];portConstraint=eastwest;whiteSpace=wrap;html=1;" vertex="1" parent="6gKi86VB5AvovJCNx1mg-34">
          <mxGeometry y="52" width="290" height="26" as="geometry" />
        </mxCell>
        <mxCell id="6gKi86VB5AvovJCNx1mg-36" value="" style="line;strokeWidth=1;fillColor=none;align=left;verticalAlign=middle;spacingTop=-1;spacingLeft=3;spacingRight=3;rotatable=0;labelPosition=right;points=[];portConstraint=eastwest;strokeColor=inherit;" vertex="1" parent="6gKi86VB5AvovJCNx1mg-34">
          <mxGeometry y="78" width="290" height="8" as="geometry" />
        </mxCell>
        <mxCell id="6gKi86VB5AvovJCNx1mg-37" value="+ add_system(njSystem): void" style="text;strokeColor=none;fillColor=none;align=left;verticalAlign=top;spacingLeft=4;spacingRight=4;overflow=hidden;rotatable=0;points=[[0,0.5],[1,0.5]];portConstraint=eastwest;whiteSpace=wrap;html=1;" vertex="1" parent="6gKi86VB5AvovJCNx1mg-34">
          <mxGeometry y="86" width="290" height="26" as="geometry" />
        </mxCell>
        <mxCell id="6gKi86VB5AvovJCNx1mg-40" value="+ add_entity(): EntityId" style="text;strokeColor=none;fillColor=none;align=left;verticalAlign=top;spacingLeft=4;spacingRight=4;overflow=hidden;rotatable=0;points=[[0,0.5],[1,0.5]];portConstraint=eastwest;whiteSpace=wrap;html=1;" vertex="1" parent="6gKi86VB5AvovJCNx1mg-34">
          <mxGeometry y="112" width="290" height="26" as="geometry" />
        </mxCell>
        <mxCell id="6gKi86VB5AvovJCNx1mg-115" value="+ update(): void" style="text;strokeColor=none;fillColor=none;align=left;verticalAlign=top;spacingLeft=4;spacingRight=4;overflow=hidden;rotatable=0;points=[[0,0.5],[1,0.5]];portConstraint=eastwest;whiteSpace=wrap;html=1;" vertex="1" parent="6gKi86VB5AvovJCNx1mg-34">
          <mxGeometry y="138" width="290" height="26" as="geometry" />
        </mxCell>
        <mxCell id="6gKi86VB5AvovJCNx1mg-38" value="for each (system : systems):&lt;div&gt;&lt;span style=&quot;white-space: pre;&quot;&gt;&#x9;&lt;/span&gt;system.update()&lt;br&gt;&lt;/div&gt;" style="text;html=1;align=left;verticalAlign=top;whiteSpace=wrap;rounded=0;" vertex="1" parent="1">
          <mxGeometry x="40" y="640" width="230" height="90" as="geometry" />
        </mxCell>
        <mxCell id="6gKi86VB5AvovJCNx1mg-41" value="1" style="endArrow=open;html=1;endSize=12;startArrow=diamondThin;startSize=14;startFill=1;edgeStyle=orthogonalEdgeStyle;align=left;verticalAlign=bottom;rounded=0;" edge="1" parent="1" source="6gKi86VB5AvovJCNx1mg-39" target="6gKi86VB5AvovJCNx1mg-5">
          <mxGeometry x="-1" y="3" relative="1" as="geometry">
            <mxPoint x="340" y="660" as="sourcePoint" />
            <mxPoint x="500" y="660" as="targetPoint" />
          </mxGeometry>
        </mxCell>
        <mxCell id="6gKi86VB5AvovJCNx1mg-43" value="njView" style="swimlane;fontStyle=1;align=center;verticalAlign=top;childLayout=stackLayout;horizontal=1;startSize=26;horizontalStack=0;resizeParent=1;resizeParentMax=0;resizeLast=0;collapsible=1;marginBottom=0;whiteSpace=wrap;html=1;" vertex="1" parent="1">
          <mxGeometry x="1440" y="90" width="160" height="86" as="geometry" />
        </mxCell>
        <mxCell id="6gKi86VB5AvovJCNx1mg-44" value="+ field: type" style="text;strokeColor=none;fillColor=none;align=left;verticalAlign=top;spacingLeft=4;spacingRight=4;overflow=hidden;rotatable=0;points=[[0,0.5],[1,0.5]];portConstraint=eastwest;whiteSpace=wrap;html=1;" vertex="1" parent="6gKi86VB5AvovJCNx1mg-43">
          <mxGeometry y="26" width="160" height="26" as="geometry" />
        </mxCell>
        <mxCell id="6gKi86VB5AvovJCNx1mg-45" value="" style="line;strokeWidth=1;fillColor=none;align=left;verticalAlign=middle;spacingTop=-1;spacingLeft=3;spacingRight=3;rotatable=0;labelPosition=right;points=[];portConstraint=eastwest;strokeColor=inherit;" vertex="1" parent="6gKi86VB5AvovJCNx1mg-43">
          <mxGeometry y="52" width="160" height="8" as="geometry" />
        </mxCell>
        <mxCell id="6gKi86VB5AvovJCNx1mg-46" value="+ method(type): type" style="text;strokeColor=none;fillColor=none;align=left;verticalAlign=top;spacingLeft=4;spacingRight=4;overflow=hidden;rotatable=0;points=[[0,0.5],[1,0.5]];portConstraint=eastwest;whiteSpace=wrap;html=1;" vertex="1" parent="6gKi86VB5AvovJCNx1mg-43">
          <mxGeometry y="60" width="160" height="26" as="geometry" />
        </mxCell>
        <mxCell id="6gKi86VB5AvovJCNx1mg-51" value="" style="endArrow=block;dashed=1;endFill=0;endSize=12;html=1;rounded=0;" edge="1" parent="1" source="6gKi86VB5AvovJCNx1mg-52" target="6gKi86VB5AvovJCNx1mg-43">
          <mxGeometry width="160" relative="1" as="geometry">
            <mxPoint x="1500" y="390" as="sourcePoint" />
            <mxPoint x="1660" y="390" as="targetPoint" />
          </mxGeometry>
        </mxCell>
        <mxCell id="6gKi86VB5AvovJCNx1mg-52" value="njCameraView" style="swimlane;fontStyle=1;align=center;verticalAlign=top;childLayout=stackLayout;horizontal=1;startSize=26;horizontalStack=0;resizeParent=1;resizeParentMax=0;resizeLast=0;collapsible=1;marginBottom=0;whiteSpace=wrap;html=1;" vertex="1" parent="1">
          <mxGeometry x="1340" y="310" width="160" height="86" as="geometry" />
        </mxCell>
        <mxCell id="6gKi86VB5AvovJCNx1mg-53" value="&amp;nbsp;" style="text;strokeColor=none;fillColor=none;align=left;verticalAlign=top;spacingLeft=4;spacingRight=4;overflow=hidden;rotatable=0;points=[[0,0.5],[1,0.5]];portConstraint=eastwest;whiteSpace=wrap;html=1;" vertex="1" parent="6gKi86VB5AvovJCNx1mg-52">
          <mxGeometry y="26" width="160" height="26" as="geometry" />
        </mxCell>
        <mxCell id="6gKi86VB5AvovJCNx1mg-54" value="" style="line;strokeWidth=1;fillColor=none;align=left;verticalAlign=middle;spacingTop=-1;spacingLeft=3;spacingRight=3;rotatable=0;labelPosition=right;points=[];portConstraint=eastwest;strokeColor=inherit;" vertex="1" parent="6gKi86VB5AvovJCNx1mg-52">
          <mxGeometry y="52" width="160" height="8" as="geometry" />
        </mxCell>
        <mxCell id="6gKi86VB5AvovJCNx1mg-55" value="+ method(type): type" style="text;strokeColor=none;fillColor=none;align=left;verticalAlign=top;spacingLeft=4;spacingRight=4;overflow=hidden;rotatable=0;points=[[0,0.5],[1,0.5]];portConstraint=eastwest;whiteSpace=wrap;html=1;" vertex="1" parent="6gKi86VB5AvovJCNx1mg-52">
          <mxGeometry y="60" width="160" height="26" as="geometry" />
        </mxCell>
        <mxCell id="6gKi86VB5AvovJCNx1mg-56" value="njSystem" style="swimlane;fontStyle=1;align=center;verticalAlign=top;childLayout=stackLayout;horizontal=1;startSize=26;horizontalStack=0;resizeParent=1;resizeParentMax=0;resizeLast=0;collapsible=1;marginBottom=0;whiteSpace=wrap;html=1;" vertex="1" parent="1">
          <mxGeometry x="500" y="930" width="230" height="138" as="geometry" />
        </mxCell>
        <mxCell id="6gKi86VB5AvovJCNx1mg-57" value="- tick_group: TickGroup" style="text;strokeColor=none;fillColor=none;align=left;verticalAlign=top;spacingLeft=4;spacingRight=4;overflow=hidden;rotatable=0;points=[[0,0.5],[1,0.5]];portConstraint=eastwest;whiteSpace=wrap;html=1;" vertex="1" parent="6gKi86VB5AvovJCNx1mg-56">
          <mxGeometry y="26" width="230" height="26" as="geometry" />
        </mxCell>
        <mxCell id="6gKi86VB5AvovJCNx1mg-74" value="- query: njviewQuery" style="text;strokeColor=none;fillColor=none;align=left;verticalAlign=top;spacingLeft=4;spacingRight=4;overflow=hidden;rotatable=0;points=[[0,0.5],[1,0.5]];portConstraint=eastwest;whiteSpace=wrap;html=1;" vertex="1" parent="6gKi86VB5AvovJCNx1mg-56">
          <mxGeometry y="52" width="230" height="26" as="geometry" />
        </mxCell>
        <mxCell id="6gKi86VB5AvovJCNx1mg-58" value="" style="line;strokeWidth=1;fillColor=none;align=left;verticalAlign=middle;spacingTop=-1;spacingLeft=3;spacingRight=3;rotatable=0;labelPosition=right;points=[];portConstraint=eastwest;strokeColor=inherit;" vertex="1" parent="6gKi86VB5AvovJCNx1mg-56">
          <mxGeometry y="78" width="230" height="8" as="geometry" />
        </mxCell>
        <mxCell id="6gKi86VB5AvovJCNx1mg-59" value="+ update(njEntityManager): void" style="text;strokeColor=none;fillColor=none;align=left;verticalAlign=top;spacingLeft=4;spacingRight=4;overflow=hidden;rotatable=0;points=[[0,0.5],[1,0.5]];portConstraint=eastwest;whiteSpace=wrap;html=1;" vertex="1" parent="6gKi86VB5AvovJCNx1mg-56">
          <mxGeometry y="86" width="230" height="26" as="geometry" />
        </mxCell>
        <mxCell id="6gKi86VB5AvovJCNx1mg-106" value="+ get_tick_group(): TickGroup" style="text;strokeColor=none;fillColor=none;align=left;verticalAlign=top;spacingLeft=4;spacingRight=4;overflow=hidden;rotatable=0;points=[[0,0.5],[1,0.5]];portConstraint=eastwest;whiteSpace=wrap;html=1;" vertex="1" parent="6gKi86VB5AvovJCNx1mg-56">
          <mxGeometry y="112" width="230" height="26" as="geometry" />
        </mxCell>
        <mxCell id="6gKi86VB5AvovJCNx1mg-82" value="njComponentMap&amp;lt;T&amp;gt;" style="swimlane;fontStyle=1;align=center;verticalAlign=top;childLayout=stackLayout;horizontal=1;startSize=26;horizontalStack=0;resizeParent=1;resizeParentMax=0;resizeLast=0;collapsible=1;marginBottom=0;whiteSpace=wrap;html=1;" vertex="1" parent="1">
          <mxGeometry x="-290" y="910" width="160" height="112" as="geometry" />
        </mxCell>
        <mxCell id="6gKi86VB5AvovJCNx1mg-83" value="- Map&amp;lt;T&amp;gt;" style="text;strokeColor=none;fillColor=none;align=left;verticalAlign=top;spacingLeft=4;spacingRight=4;overflow=hidden;rotatable=0;points=[[0,0.5],[1,0.5]];portConstraint=eastwest;whiteSpace=wrap;html=1;" vertex="1" parent="6gKi86VB5AvovJCNx1mg-82">
          <mxGeometry y="26" width="160" height="26" as="geometry" />
        </mxCell>
        <mxCell id="6gKi86VB5AvovJCNx1mg-84" value="" style="line;strokeWidth=1;fillColor=none;align=left;verticalAlign=middle;spacingTop=-1;spacingLeft=3;spacingRight=3;rotatable=0;labelPosition=right;points=[];portConstraint=eastwest;strokeColor=inherit;" vertex="1" parent="6gKi86VB5AvovJCNx1mg-82">
          <mxGeometry y="52" width="160" height="8" as="geometry" />
        </mxCell>
        <mxCell id="6gKi86VB5AvovJCNx1mg-85" value="+ get(EntityId): T*" style="text;strokeColor=none;fillColor=none;align=left;verticalAlign=top;spacingLeft=4;spacingRight=4;overflow=hidden;rotatable=0;points=[[0,0.5],[1,0.5]];portConstraint=eastwest;whiteSpace=wrap;html=1;" vertex="1" parent="6gKi86VB5AvovJCNx1mg-82">
          <mxGeometry y="60" width="160" height="26" as="geometry" />
        </mxCell>
        <mxCell id="6gKi86VB5AvovJCNx1mg-93" value="+ insert(EntityId, T): void" style="text;strokeColor=none;fillColor=none;align=left;verticalAlign=top;spacingLeft=4;spacingRight=4;overflow=hidden;rotatable=0;points=[[0,0.5],[1,0.5]];portConstraint=eastwest;whiteSpace=wrap;html=1;" vertex="1" parent="6gKi86VB5AvovJCNx1mg-82">
          <mxGeometry y="86" width="160" height="26" as="geometry" />
        </mxCell>
        <mxCell id="6gKi86VB5AvovJCNx1mg-86" value="njComponentMapInterface" style="swimlane;fontStyle=1;align=center;verticalAlign=top;childLayout=stackLayout;horizontal=1;startSize=26;horizontalStack=0;resizeParent=1;resizeParentMax=0;resizeLast=0;collapsible=1;marginBottom=0;whiteSpace=wrap;html=1;" vertex="1" parent="1">
          <mxGeometry x="-290" y="720" width="160" height="86" as="geometry" />
        </mxCell>
        <mxCell id="6gKi86VB5AvovJCNx1mg-87" value="+ field: type" style="text;strokeColor=none;fillColor=none;align=left;verticalAlign=top;spacingLeft=4;spacingRight=4;overflow=hidden;rotatable=0;points=[[0,0.5],[1,0.5]];portConstraint=eastwest;whiteSpace=wrap;html=1;" vertex="1" parent="6gKi86VB5AvovJCNx1mg-86">
          <mxGeometry y="26" width="160" height="26" as="geometry" />
        </mxCell>
        <mxCell id="6gKi86VB5AvovJCNx1mg-88" value="" style="line;strokeWidth=1;fillColor=none;align=left;verticalAlign=middle;spacingTop=-1;spacingLeft=3;spacingRight=3;rotatable=0;labelPosition=right;points=[];portConstraint=eastwest;strokeColor=inherit;" vertex="1" parent="6gKi86VB5AvovJCNx1mg-86">
          <mxGeometry y="52" width="160" height="8" as="geometry" />
        </mxCell>
        <mxCell id="6gKi86VB5AvovJCNx1mg-89" value="+ method(type): type" style="text;strokeColor=none;fillColor=none;align=left;verticalAlign=top;spacingLeft=4;spacingRight=4;overflow=hidden;rotatable=0;points=[[0,0.5],[1,0.5]];portConstraint=eastwest;whiteSpace=wrap;html=1;" vertex="1" parent="6gKi86VB5AvovJCNx1mg-86">
          <mxGeometry y="60" width="160" height="26" as="geometry" />
        </mxCell>
        <mxCell id="6gKi86VB5AvovJCNx1mg-90" value="" style="endArrow=block;dashed=1;endFill=0;endSize=12;html=1;rounded=0;" edge="1" parent="1" source="6gKi86VB5AvovJCNx1mg-82" target="6gKi86VB5AvovJCNx1mg-86">
          <mxGeometry width="160" relative="1" as="geometry">
            <mxPoint x="-280" y="1010" as="sourcePoint" />
            <mxPoint x="-120" y="1010" as="targetPoint" />
          </mxGeometry>
        </mxCell>
        <mxCell id="6gKi86VB5AvovJCNx1mg-94" value="TickGroup" style="swimlane;fontStyle=0;childLayout=stackLayout;horizontal=1;startSize=26;fillColor=none;horizontalStack=0;resizeParent=1;resizeParentMax=0;resizeLast=0;collapsible=1;marginBottom=0;whiteSpace=wrap;html=1;" vertex="1" parent="1">
          <mxGeometry x="940" y="910" width="140" height="130" as="geometry" />
        </mxCell>
        <mxCell id="6gKi86VB5AvovJCNx1mg-95" value="+ Zero" style="text;strokeColor=none;fillColor=none;align=left;verticalAlign=top;spacingLeft=4;spacingRight=4;overflow=hidden;rotatable=0;points=[[0,0.5],[1,0.5]];portConstraint=eastwest;whiteSpace=wrap;html=1;" vertex="1" parent="6gKi86VB5AvovJCNx1mg-94">
          <mxGeometry y="26" width="140" height="26" as="geometry" />
        </mxCell>
        <mxCell id="6gKi86VB5AvovJCNx1mg-96" value="+ One" style="text;strokeColor=none;fillColor=none;align=left;verticalAlign=top;spacingLeft=4;spacingRight=4;overflow=hidden;rotatable=0;points=[[0,0.5],[1,0.5]];portConstraint=eastwest;whiteSpace=wrap;html=1;" vertex="1" parent="6gKi86VB5AvovJCNx1mg-94">
          <mxGeometry y="52" width="140" height="26" as="geometry" />
        </mxCell>
        <mxCell id="6gKi86VB5AvovJCNx1mg-97" value="+ Two" style="text;strokeColor=none;fillColor=none;align=left;verticalAlign=top;spacingLeft=4;spacingRight=4;overflow=hidden;rotatable=0;points=[[0,0.5],[1,0.5]];portConstraint=eastwest;whiteSpace=wrap;html=1;" vertex="1" parent="6gKi86VB5AvovJCNx1mg-94">
          <mxGeometry y="78" width="140" height="26" as="geometry" />
        </mxCell>
        <mxCell id="6gKi86VB5AvovJCNx1mg-99" value="+ Three" style="text;strokeColor=none;fillColor=none;align=left;verticalAlign=top;spacingLeft=4;spacingRight=4;overflow=hidden;rotatable=0;points=[[0,0.5],[1,0.5]];portConstraint=eastwest;whiteSpace=wrap;html=1;" vertex="1" parent="6gKi86VB5AvovJCNx1mg-94">
          <mxGeometry y="104" width="140" height="26" as="geometry" />
        </mxCell>
        <mxCell id="6gKi86VB5AvovJCNx1mg-98" value="" style="endArrow=open;endFill=1;endSize=12;html=1;rounded=0;" edge="1" parent="1" source="6gKi86VB5AvovJCNx1mg-94" target="6gKi86VB5AvovJCNx1mg-57">
          <mxGeometry width="160" relative="1" as="geometry">
            <mxPoint x="710" y="830" as="sourcePoint" />
            <mxPoint x="870" y="830" as="targetPoint" />
          </mxGeometry>
        </mxCell>
        <mxCell id="6gKi86VB5AvovJCNx1mg-101" value="" style="endArrow=block;dashed=1;endFill=0;endSize=12;html=1;rounded=0;" edge="1" parent="1" source="6gKi86VB5AvovJCNx1mg-102" target="6gKi86VB5AvovJCNx1mg-56">
          <mxGeometry width="160" relative="1" as="geometry">
            <mxPoint x="570" y="1180" as="sourcePoint" />
            <mxPoint x="680" y="1160" as="targetPoint" />
          </mxGeometry>
        </mxCell>
        <mxCell id="6gKi86VB5AvovJCNx1mg-102" value="njInputSystem" style="swimlane;fontStyle=1;align=center;verticalAlign=top;childLayout=stackLayout;horizontal=1;startSize=26;horizontalStack=0;resizeParent=1;resizeParentMax=0;resizeLast=0;collapsible=1;marginBottom=0;whiteSpace=wrap;html=1;" vertex="1" parent="1">
          <mxGeometry x="360" y="1180" width="160" height="86" as="geometry" />
        </mxCell>
        <mxCell id="6gKi86VB5AvovJCNx1mg-103" value="+ field: type" style="text;strokeColor=none;fillColor=none;align=left;verticalAlign=top;spacingLeft=4;spacingRight=4;overflow=hidden;rotatable=0;points=[[0,0.5],[1,0.5]];portConstraint=eastwest;whiteSpace=wrap;html=1;" vertex="1" parent="6gKi86VB5AvovJCNx1mg-102">
          <mxGeometry y="26" width="160" height="26" as="geometry" />
        </mxCell>
        <mxCell id="6gKi86VB5AvovJCNx1mg-104" value="" style="line;strokeWidth=1;fillColor=none;align=left;verticalAlign=middle;spacingTop=-1;spacingLeft=3;spacingRight=3;rotatable=0;labelPosition=right;points=[];portConstraint=eastwest;strokeColor=inherit;" vertex="1" parent="6gKi86VB5AvovJCNx1mg-102">
          <mxGeometry y="52" width="160" height="8" as="geometry" />
        </mxCell>
        <mxCell id="6gKi86VB5AvovJCNx1mg-105" value="+ method(type): type" style="text;strokeColor=none;fillColor=none;align=left;verticalAlign=top;spacingLeft=4;spacingRight=4;overflow=hidden;rotatable=0;points=[[0,0.5],[1,0.5]];portConstraint=eastwest;whiteSpace=wrap;html=1;" vertex="1" parent="6gKi86VB5AvovJCNx1mg-102">
          <mxGeometry y="60" width="160" height="26" as="geometry" />
        </mxCell>
      </root>
    </mxGraphModel>
  </diagram>
</mxfile>
